<?xml version="1.0" encoding="UTF-8" standalone="no"?>
<!-- Created with Inkscape (http://www.inkscape.org/) -->

<svg
   width="297mm"
   height="210mm"
   viewBox="0 0 297 210"
   version="1.1"
   id="svg1"
   xml:space="preserve"
   sodipodi:docname="inference.svg"
   inkscape:version="1.3.2 (1:1.3.2+202311252150+091e20ef0f)"
   xmlns:inkscape="http://www.inkscape.org/namespaces/inkscape"
   xmlns:sodipodi="http://sodipodi.sourceforge.net/DTD/sodipodi-0.dtd"
   xmlns="http://www.w3.org/2000/svg"
   xmlns:svg="http://www.w3.org/2000/svg"><sodipodi:namedview
     id="namedview1"
     pagecolor="#ffffff"
     bordercolor="#000000"
     borderopacity="0.25"
     inkscape:showpageshadow="2"
     inkscape:pageopacity="0.0"
     inkscape:pagecheckerboard="0"
     inkscape:deskcolor="#d1d1d1"
     inkscape:document-units="mm"
     inkscape:zoom="1.4538721"
     inkscape:cx="332.56021"
     inkscape:cy="229.04354"
     inkscape:window-width="1848"
     inkscape:window-height="1016"
     inkscape:window-x="72"
     inkscape:window-y="27"
     inkscape:window-maximized="1"
     inkscape:current-layer="layer1" /><defs
     id="defs1"><marker
       style="overflow:visible"
       id="ArrowWide-5-3"
       refX="0"
       refY="0"
       orient="auto-start-reverse"
       inkscape:stockid="Wide arrow"
       markerWidth="1"
       markerHeight="1"
       viewBox="0 0 1 1"
       inkscape:isstock="true"
       inkscape:collect="always"
       preserveAspectRatio="xMidYMid"><path
         style="fill:none;stroke:context-stroke;stroke-width:1;stroke-linecap:butt"
         d="M 3,-3 0,0 3,3"
         transform="rotate(180,0.125,0)"
         sodipodi:nodetypes="ccc"
         id="path37-85-6" /></marker><marker
       style="overflow:visible"
       id="ArrowWide-5-3-7"
       refX="0"
       refY="0"
       orient="auto-start-reverse"
       inkscape:stockid="Wide arrow"
       markerWidth="1"
       markerHeight="1"
       viewBox="0 0 1 1"
       inkscape:isstock="true"
       inkscape:collect="always"
       preserveAspectRatio="xMidYMid"><path
         style="fill:none;stroke:context-stroke;stroke-width:1;stroke-linecap:butt"
         d="M 3,-3 0,0 3,3"
         transform="rotate(180,0.125,0)"
         sodipodi:nodetypes="ccc"
         id="path37-85-6-6" /></marker><marker
       style="overflow:visible"
       id="ArrowWide-5-3-74"
       refX="0"
       refY="0"
       orient="auto-start-reverse"
       inkscape:stockid="Wide arrow"
       markerWidth="1"
       markerHeight="1"
       viewBox="0 0 1 1"
       inkscape:isstock="true"
       inkscape:collect="always"
       preserveAspectRatio="xMidYMid"><path
         style="fill:none;stroke:context-stroke;stroke-width:1;stroke-linecap:butt"
         d="M 3,-3 0,0 3,3"
         transform="rotate(180,0.125,0)"
         sodipodi:nodetypes="ccc"
         id="path37-85-6-5" /></marker><marker
       style="overflow:visible"
       id="ArrowWide-5-3-78"
       refX="0"
       refY="0"
       orient="auto-start-reverse"
       inkscape:stockid="Wide arrow"
       markerWidth="1"
       markerHeight="1"
       viewBox="0 0 1 1"
       inkscape:isstock="true"
       inkscape:collect="always"
       preserveAspectRatio="xMidYMid"><path
         style="fill:none;stroke:context-stroke;stroke-width:1;stroke-linecap:butt"
         d="M 3,-3 0,0 3,3"
         transform="rotate(180,0.125,0)"
         sodipodi:nodetypes="ccc"
         id="path37-85-6-68" /></marker></defs><g
     inkscape:label="Layer 1"
     inkscape:groupmode="layer"
     id="layer1"><circle
       style="fill:#2077b3;fill-opacity:1;stroke:#2077b3;stroke-width:0.713423;stroke-linecap:round;stroke-linejoin:round;stroke-dasharray:none;stroke-dashoffset:0;stroke-opacity:1"
       id="path13-0"
       cx="47.632477"
       cy="52.806545"
       r="2.1432884"
       inkscape:export-filename="../inference.png"
       inkscape:export-xdpi="96"
       inkscape:export-ydpi="96" /><circle
       style="fill:#2077b3;fill-opacity:1;stroke:#2077b3;stroke-width:0.713423;stroke-linecap:round;stroke-linejoin:round;stroke-dasharray:none;stroke-dashoffset:0;stroke-opacity:1"
       id="path13-6"
       cx="37.139038"
       cy="39.216808"
       r="2.1432884" /><circle
       style="fill:#2077b3;fill-opacity:1;stroke:#2077b3;stroke-width:0.713423;stroke-linecap:round;stroke-linejoin:round;stroke-dasharray:none;stroke-dashoffset:0;stroke-opacity:1"
       id="path13-7"
       cx="42.049686"
       cy="23.259167"
       r="2.1432884" /><circle
       style="fill:#ff0f0f;fill-opacity:1;stroke:#ff0f0f;stroke-width:0.713;stroke-linecap:round;stroke-linejoin:round;stroke-dasharray:none;stroke-dashoffset:0;stroke-opacity:1"
       id="path13-3"
       cx="46.539516"
       cy="37.114006"
       r="2.1432884" /><circle
       style="fill:#2077b3;fill-opacity:1;stroke:#2077b3;stroke-width:0.713423;stroke-linecap:round;stroke-linejoin:round;stroke-dasharray:none;stroke-dashoffset:0;stroke-opacity:1"
       id="path13-2"
       cx="51.099995"
       cy="26.828285"
       r="2.1432884" /><circle
       style="fill:#000000;fill-opacity:1;stroke:#000000;stroke-width:0.713423;stroke-linecap:round;stroke-linejoin:round;stroke-dasharray:none;stroke-dashoffset:0;stroke-opacity:1"
       id="path13-61"
       cx="29.079483"
       cy="16.892107"
       r="2.1432884" /><circle
       style="fill:#000000;fill-opacity:1;stroke:#000000;stroke-width:0.713423;stroke-linecap:round;stroke-linejoin:round;stroke-dasharray:none;stroke-dashoffset:0;stroke-opacity:1"
       id="path13-9"
       cx="24.419067"
       cy="46.29649"
       r="2.1432884" /><circle
       style="fill:#2077b3;fill-opacity:1;stroke:#2077b3;stroke-width:0.713423;stroke-linecap:round;stroke-linejoin:round;stroke-dasharray:none;stroke-dashoffset:0;stroke-opacity:1"
       id="path13-63"
       cx="59.898621"
       cy="41.094688"
       r="2.1432884" /><circle
       style="fill:#000000;fill-opacity:1;stroke:#000000;stroke-width:0.713423;stroke-linecap:round;stroke-linejoin:round;stroke-dasharray:none;stroke-dashoffset:0;stroke-opacity:1"
       id="path13-5"
       cx="48.823071"
       cy="15.240335"
       r="2.1432884" /><circle
       style="fill:#000000;fill-opacity:1;stroke:#000000;stroke-width:0.713423;stroke-linecap:round;stroke-linejoin:round;stroke-dasharray:none;stroke-dashoffset:0;stroke-opacity:1"
       id="path13-25"
       cx="21.141983"
       cy="34.35461"
       r="2.1432884" /><circle
       style="fill:#fe8113;fill-opacity:1;stroke:#fe8113;stroke-width:0.713423;stroke-linecap:round;stroke-linejoin:round;stroke-dasharray:none;stroke-dashoffset:0;stroke-opacity:1"
       id="path13-07"
       cx="56.590866"
       cy="52.141201"
       r="2.1432884" /><path
       style="fill:none;fill-rule:evenodd;stroke:#000000;stroke-width:0.4;stroke-linecap:butt;stroke-linejoin:miter;stroke-dasharray:none;stroke-opacity:1;marker-start:url(#ArrowWide-5-3);marker-end:url(#ArrowWide-5-3)"
       d="m 39.230626,38.748939 5.217303,-1.167064"
       id="path14"
       inkscape:connector-type="polyline"
       inkscape:connector-curvature="0"
       inkscape:connection-end="#path13-3"
       inkscape:connection-start="#path13-6" /><path
       style="fill:none;fill-rule:evenodd;stroke:#000000;stroke-width:0.4;stroke-linecap:butt;stroke-linejoin:miter;stroke-dasharray:none;stroke-opacity:1;marker-start:url(#ArrowWide-5-3);marker-end:url(#ArrowWide-5-3)"
       d="M 45.878798,35.075143 42.710405,25.29803"
       id="path15"
       inkscape:connector-type="polyline"
       inkscape:connector-curvature="0"
       inkscape:connection-end="#path13-7"
       inkscape:connection-start="#path13-3" /><circle
       style="fill:#fe8113;fill-opacity:1;stroke:#fe8113;stroke-width:0.713423;stroke-linecap:round;stroke-linejoin:round;stroke-dasharray:none;stroke-dashoffset:0;stroke-opacity:1"
       id="path13-7-5"
       cx="31.198463"
       cy="28.639935"
       r="2.1432884" /><path
       style="fill:none;fill-rule:evenodd;stroke:#000000;stroke-width:0.4;stroke-linecap:butt;stroke-linejoin:miter;stroke-dasharray:none;stroke-opacity:1;marker-start:url(#ArrowWide-5-3-74);marker-end:url(#ArrowWide-5-3-74)"
       d="M 44.663436,36.077699 33.074544,29.676241"
       id="path15-4"
       inkscape:connector-type="polyline"
       inkscape:connector-curvature="0"
       inkscape:connection-start="#path13-3"
       inkscape:connection-end="#path13-7-5" /><path
       style="fill:none;fill-rule:evenodd;stroke:#000000;stroke-width:0.4;stroke-linecap:butt;stroke-linejoin:miter;stroke-dasharray:none;stroke-opacity:1;marker-start:url(#ArrowWide-5-3);marker-end:url(#ArrowWide-5-3)"
       d="m 47.408245,35.154672 2.823021,-6.367053"
       id="path17"
       inkscape:connector-type="polyline"
       inkscape:connector-curvature="0"
       inkscape:connection-end="#path13-2"
       inkscape:connection-start="#path13-3" /><path
       style="fill:none;fill-rule:evenodd;stroke:#000000;stroke-width:0.4;stroke-linecap:butt;stroke-linejoin:miter;stroke-dasharray:none;stroke-opacity:1;marker-start:url(#ArrowWide-5-3);marker-end:url(#ArrowWide-5-3)"
       d="m 47.731121,38.895505 7.668141,11.464197"
       id="path19"
       inkscape:connector-type="polyline"
       inkscape:connector-curvature="0"
       inkscape:connection-end="#path13-07"
       inkscape:connection-start="#path13-3" /><path
       style="fill:none;fill-rule:evenodd;stroke:#000000;stroke-width:0.4;stroke-linecap:butt;stroke-linejoin:miter;stroke-dasharray:none;stroke-opacity:1;marker-start:url(#ArrowWide-5-3);marker-end:url(#ArrowWide-5-3)"
       d="m 48.593518,37.726048 9.251101,2.756599"
       id="path21"
       inkscape:connector-type="polyline"
       inkscape:connector-curvature="0"
       inkscape:connection-end="#path13-63"
       inkscape:connection-start="#path13-3" /><circle
       style="fill:#000000;fill-opacity:1;stroke:#000000;stroke-width:0.713423;stroke-linecap:round;stroke-linejoin:round;stroke-dasharray:none;stroke-dashoffset:0;stroke-opacity:1"
       id="path13-5-4"
       cx="64.319557"
       cy="25.59024"
       r="2.1432884" /><text
       xml:space="preserve"
       style="font-size:4.58611px;fill:#000000;fill-opacity:1;stroke:#000000;stroke-width:0.187719;stroke-dasharray:none;stroke-opacity:1"
       x="27.951054"
       y="74.222084"
       id="text35-8-3-7-4-3-5-7"
       transform="scale(0.99748972,1.0025166)"
       inkscape:export-filename="../Feature extraction 2.png"
       inkscape:export-xdpi="96"
       inkscape:export-ydpi="96"><tspan
         sodipodi:role="line"
         style="font-size:4.58611px;fill:#000000;fill-opacity:1;stroke-width:0.187719"
         x="27.951054"
         y="74.222084"
         id="tspan12">Embedding space</tspan></text><rect
       style="fill:none;stroke:#000000;stroke-width:0.766544;stroke-linecap:round;stroke-linejoin:round;stroke-dasharray:none;stroke-dashoffset:0"
       id="rect12"
       width="64.233452"
       height="64.233459"
       x="16.229637"
       y="4.2019258" /><path
       style="fill:none;fill-rule:evenodd;stroke:#000000;stroke-width:0.4;stroke-linecap:butt;stroke-linejoin:miter;stroke-dasharray:none;stroke-opacity:1;marker-start:url(#ArrowWide-5-3);marker-end:url(#ArrowWide-5-3)"
       d="m 46.68843,39.252079 0.795133,11.416393"
       id="path18"
       inkscape:connector-type="polyline"
       inkscape:connector-curvature="0"
       inkscape:connection-start="#path13-3"
       inkscape:connection-end="#path13-0" /><circle
       style="fill:#000000;fill-opacity:1;stroke:#000000;stroke-width:0.713423;stroke-linecap:round;stroke-linejoin:round;stroke-dasharray:none;stroke-dashoffset:0;stroke-opacity:1"
       id="path13-61-6"
       cx="37.164726"
       cy="9.4617653"
       r="2.1432884" /><circle
       style="fill:#000000;fill-opacity:1;stroke:#000000;stroke-width:0.713423;stroke-linecap:round;stroke-linejoin:round;stroke-dasharray:none;stroke-dashoffset:0;stroke-opacity:1"
       id="path13-61-2"
       cx="64.941666"
       cy="10.4375"
       r="2.1432884" /><circle
       style="fill:#000000;fill-opacity:1;stroke:#000000;stroke-width:0.713423;stroke-linecap:round;stroke-linejoin:round;stroke-dasharray:none;stroke-dashoffset:0;stroke-opacity:1"
       id="path13-61-3"
       cx="72.349998"
       cy="20.227083"
       r="2.1432884" /><circle
       style="fill:#000000;fill-opacity:1;stroke:#000000;stroke-width:0.713423;stroke-linecap:round;stroke-linejoin:round;stroke-dasharray:none;stroke-dashoffset:0;stroke-opacity:1"
       id="path13-61-26"
       cx="75.525002"
       cy="33.191666"
       r="2.1432884" /><circle
       style="fill:#000000;fill-opacity:1;stroke:#000000;stroke-width:0.713423;stroke-linecap:round;stroke-linejoin:round;stroke-dasharray:none;stroke-dashoffset:0;stroke-opacity:1"
       id="path13-61-37"
       cx="71.291664"
       cy="42.452084"
       r="2.1432884" /><circle
       style="fill:#000000;fill-opacity:1;stroke:#000000;stroke-width:0.713423;stroke-linecap:round;stroke-linejoin:round;stroke-dasharray:none;stroke-dashoffset:0;stroke-opacity:1"
       id="path13-61-28"
       cx="66.793747"
       cy="54.622917"
       r="2.1432884" /><circle
       style="fill:#000000;fill-opacity:1;stroke:#000000;stroke-width:0.713423;stroke-linecap:round;stroke-linejoin:round;stroke-dasharray:none;stroke-dashoffset:0;stroke-opacity:1"
       id="path13-61-61"
       cx="54.09375"
       cy="62.295834"
       r="2.1432884" /><circle
       style="fill:#000000;fill-opacity:1;stroke:#000000;stroke-width:0.713423;stroke-linecap:round;stroke-linejoin:round;stroke-dasharray:none;stroke-dashoffset:0;stroke-opacity:1"
       id="path13-61-1"
       cx="29.068705"
       cy="58.591667"
       r="2.1432884" /><circle
       style="fill:#000000;fill-opacity:1;stroke:#000000;stroke-width:0.713423;stroke-linecap:round;stroke-linejoin:round;stroke-dasharray:none;stroke-dashoffset:0;stroke-opacity:1"
       id="path13-61-8"
       cx="41.810051"
       cy="60.806694"
       r="2.1432884" /><circle
       style="fill:#000000;fill-opacity:1;stroke:#000000;stroke-width:0.713423;stroke-linecap:round;stroke-linejoin:round;stroke-dasharray:none;stroke-dashoffset:0;stroke-opacity:1"
       id="path13-61-36"
       cx="74.20208"
       cy="59.385418"
       r="2.1432884" /><circle
       style="fill:#000000;fill-opacity:1;stroke:#000000;stroke-width:0.713423;stroke-linecap:round;stroke-linejoin:round;stroke-dasharray:none;stroke-dashoffset:0;stroke-opacity:1"
       id="path13-61-32"
       cx="20.913532"
       cy="16.552265"
       r="2.1432884" /><circle
       style="fill:#2077b3;fill-opacity:1;stroke:#2077b3;stroke-width:0.713;stroke-linecap:round;stroke-linejoin:round;stroke-dasharray:none;stroke-dashoffset:0;stroke-opacity:1"
       id="path13-0-5"
       cx="38.248936"
       cy="48.918972"
       r="2.1432884"
       inkscape:export-filename="../unpie2_white.png"
       inkscape:export-xdpi="96"
       inkscape:export-ydpi="96" /><path
       style="display:inline;fill:none;fill-rule:evenodd;stroke:#000000;stroke-width:0.4;stroke-linecap:butt;stroke-linejoin:miter;stroke-dasharray:none;stroke-opacity:1;marker-start:url(#ArrowWide-5-3-7);marker-end:url(#ArrowWide-5-3-7)"
       d="m 45.307729,38.86795 -5.827006,8.297079"
       id="path18-6"
       inkscape:connector-type="polyline"
       inkscape:connector-curvature="0"
       inkscape:connection-start="#path13-3"
       inkscape:connection-end="#path13-0-5" /><path
       style="fill:none;stroke:#ff0000;stroke-width:1;stroke-linecap:round;stroke-linejoin:round;stroke-dasharray:1, 3;stroke-dashoffset:0"
       d="m 41.326954,17.424423 c -0.521155,0.0065 -1.041969,0.245899 -1.514144,0.481988 -0.03837,0.01918 -0.04938,0.08059 -0.09099,0.09099 -0.08828,0.02207 -0.184703,-0.02207 -0.272979,0 -0.219151,0.05479 -1.364588,1.000618 -1.543518,1.179548 -0.04796,0.04796 -0.04303,0.134027 -0.09099,0.181985 -0.0016,0.0015 -0.358656,0.178565 -0.361693,0.180847 -0.302789,0.227568 -0.504198,0.609109 -0.818933,0.818934 -0.181986,0.121323 -0.350327,0.266156 -0.545957,0.36397 -0.05426,0.02713 -0.129969,-0.03121 -0.181986,0 -0.187534,0.112521 -0.341426,0.352381 -0.545954,0.454963 -0.110401,0.05537 -0.256697,0.02136 -0.359461,0.08987 -0.10618,0.07079 -0.161277,0.205047 -0.270703,0.270701 -0.213191,0.127915 -0.423757,0.236056 -0.636947,0.363971 -0.202446,0.121468 -0.499989,0.227039 -0.725625,0.27182 -0.08925,0.01771 -0.186656,-0.02877 -0.272979,0 -0.103748,0.03458 -0.16923,0.147403 -0.272978,0.181985 -0.217374,0.07246 -0.50409,-0.05532 -0.72679,0 -0.758954,0.188533 0.110773,-0.0073 -0.451543,0.179703 -0.175064,0.05823 -0.370927,0.03265 -0.545957,0.09099 -0.207936,0.06931 -0.899893,0.326951 -1.091912,0.454964 -0.107068,0.07138 -0.172492,0.19259 -0.272975,0.272978 -0.329264,0.263409 -0.75364,0.395325 -1.091912,0.636948 -0.480512,0.343223 -0.782937,0.94659 -1.273897,1.273897 -0.05643,0.03762 -0.13403,0.04303 -0.181986,0.09099 -0.121904,0.121903 -0.594164,0.829783 -0.63695,1.000918 -0.01471,0.05885 0.03121,0.129969 0,0.181986 -0.06621,0.110345 -0.20677,0.162634 -0.272977,0.272979 -0.03982,0.06637 0.01966,0.193188 0,0.271833 -0.06371,0.254828 -0.136147,0.449855 -0.180844,0.71593 -0.05305,0.315818 0.07958,0.05707 0,0.454965 -0.0133,0.06651 -0.07769,0.11548 -0.09099,0.181985 -0.05592,0.279593 -0.05211,1.92105 0,2.181577 0.01881,0.09405 0.07218,0.178925 0.09099,0.272979 0.02528,0.126378 -0.03791,0.341222 0,0.454961 0.04716,0.141481 0.550656,0.940901 0.63695,1.091912 0.09517,0.166555 0.114628,0.366342 0.181983,0.545957 0.170254,0.454004 0.355182,0.91975 0.545957,1.36489 0.06967,0.162558 0.230084,0.283385 0.272978,0.454962 0.02207,0.08828 -0.03379,0.188494 0,0.272978 0.03186,0.07965 0.143619,0.105254 0.181986,0.181986 0.05592,0.111855 0.04454,0.247856 0.09099,0.363972 0.01593,0.03983 0.08059,0.04938 0.09099,0.09099 0.0933,0.373197 0.07718,0.749808 0.272979,1.091914 0.07601,0.132808 0.214966,0.22669 0.275442,0.367257 0.07192,0.167172 -0.05,0.370973 0,0.545955 0.09612,0.33641 0.33188,0.6727 0.454961,1.000921 0.07753,0.206751 0.145685,0.41914 0.181986,0.636948 0.01495,0.08975 -0.02877,0.186655 0,0.272978 0.03458,0.103746 0.141372,0.17144 0.181986,0.272976 0.07222,0.180552 0.104529,0.534298 0.181985,0.727938 0.183375,0.45844 0.470813,0.92989 0.545955,1.45589 0.01714,0.1201 -0.02955,0.2463 0,0.36397 0.07454,0.29677 0.266663,0.61693 0.365654,0.91328 0.02931,0.0877 0.04072,0.41261 0.08986,0.53344 0.16999,0.41801 0.176744,0.25316 0.271836,0.63352 0.04092,0.16368 0.168465,0.86571 0.181985,1.00092 0.01206,0.12072 -0.03333,0.24732 0,0.36397 0.03004,0.10515 0.14137,0.17144 0.181986,0.27298 0.05632,0.14081 -0.02146,0.30483 0,0.45496 0.05678,0.39744 0.121857,1.19426 0.272979,1.54688 0.04308,0.10052 0.133077,0.17516 0.181985,0.27298 0.106844,0.21369 0.08469,0.52903 0.181983,0.72363 0.09201,0.18402 0.277823,0.30923 0.349959,0.52654 0.02392,0.0721 0.165918,0.69991 0.181986,0.72794 0.118909,0.20739 0.352171,0.33718 0.459084,0.551 0.209672,0.62902 -0.05871,-0.0405 0.272979,0.45497 0.06891,0.10292 0.02609,0.25436 0.08986,0.36055 0.275313,0.45847 0.08982,-0.002 0.272976,0.27298 0.185674,0.27851 0.463481,0.53038 0.633609,0.81392 0.192529,0.32088 0.400507,0.69073 0.727942,0.90993 0.468683,0.31376 1.012561,0.64221 1.543474,0.90766 0.336777,0.16839 0.312629,0.0262 0.72794,0.18199 0.102396,0.0384 0.175165,0.13308 0.272978,0.18198 0.418921,0.20946 0.120502,0.006 0.545955,0.091 0.06651,0.0133 0.11548,0.0777 0.181986,0.091 0.289247,0.0579 0.624096,-0.0712 0.909925,0 0.245886,0.0613 0.472824,0.24036 0.724424,0.27181 0.49593,0.062 0.960777,0.0827 1.455883,0.18198 0.147582,0.0296 0.303104,-0.0248 0.451562,0 0.06689,0.0112 0.11548,0.0777 0.181983,0.091 0.166545,0.0333 0.480044,-0.0439 0.632537,0 0.105098,0.0302 0.16923,0.14741 0.272978,0.18199 0.374719,0.1249 1.207352,-0.0166 1.637869,0.091 0.04161,0.0104 0.06066,0.0607 0.09099,0.091 0.09099,0.0303 0.178369,0.0752 0.272979,0.091 0.179509,0.0299 0.369517,-0.0446 0.545957,0 0.162962,0.0412 0.304202,0.15037 0.468186,0.18727 0.327072,0.0736 0.571468,0.0487 0.909925,0.091 0.287716,-0.17814 0.419143,0.14568 0.63695,0.18198 0.119674,0.02 0.245589,-0.0266 0.363972,0 0.162785,0.0365 0.302921,0.14512 0.464698,0.18589 0.291722,0.0735 0.209928,-0.049 0.454962,0 0.09405,0.0188 0.178369,0.0752 0.272978,0.091 0.679133,0.11319 1.410917,-0.0974 2.092831,0 1.023022,0.14615 2.072531,0.091 3.112701,0.091 0.167256,0 0.713737,0.0564 0.909926,0 0.171341,-0.0492 0.285496,-0.23202 0.458372,-0.27554 0.08824,-0.0222 0.182901,0.0129 0.272978,0 0.35501,-0.0507 0.758256,-0.13951 1.091912,-0.27298 0.306025,-0.12241 0.716825,-0.54225 1.000919,-0.63694 0.488537,-0.16285 -0.223981,0.32722 0.454964,-0.18199 0.186957,-0.14022 -0.0099,-0.0835 0.272978,-0.27298 0.125381,-0.084 0.303888,-0.0331 0.443667,-0.0899 0.236321,-0.0961 0.836136,-0.92713 1.091912,-1.1829 0.233553,-0.23356 0.529346,-0.46315 0.72794,-0.72795 0.121179,-0.16157 0.157829,-0.37439 0.269618,-0.54259 0.07079,-0.10651 0.20066,-0.16468 0.271291,-0.27129 0.188957,-0.28523 0.421222,-0.60063 0.544266,-0.90824 0.07808,-0.19519 0.01098,-0.42968 0.09099,-0.62408 0.03266,-0.0793 0.151696,-0.10173 0.181986,-0.18199 0.202578,-0.53682 0.05611,-1.17987 0.271777,-1.71831 0.288991,-0.72153 0.528256,-1.45771 0.817758,-2.18147 0.142441,-0.3561 0.391531,-0.71131 0.454962,-1.09191 0.02992,-0.17951 -0.03569,-0.3675 0,-0.54595 0.07906,-0.39534 0.126862,-0.19786 0.274595,-0.64019 0.111718,-0.3345 0.142095,-0.76333 0.271817,-1.08726 0.09646,-0.24088 0.230045,-0.38143 0.272367,-0.63574 0.0695,-0.41764 0.02138,-0.8562 0.09099,-1.27389 0.07835,-0.47008 0.301927,-0.91183 0.36933,-1.38364 0.05875,-0.411229 0.06829,-1.137153 0,-1.546877 -0.0363,-0.217807 -0.138581,-0.420444 -0.181986,-0.636947 -0.108511,-0.541269 -0.0016,-1.188453 -0.09099,-1.725607 -0.03412,-0.204724 -0.220713,-0.357555 -0.278453,-0.556908 -0.07126,-0.246023 -0.04017,-0.561893 -0.09099,-0.814695 -0.08365,-0.41607 -0.378798,-0.7576 -0.545957,-1.091914 -0.04289,-0.08579 -0.04164,-0.19073 -0.09099,-0.272976 -0.04414,-0.07356 -0.137766,-0.108471 -0.181985,-0.181986 -0.196464,-0.326625 -0.203047,-0.68376 -0.454962,-0.998654 -0.201665,-0.252079 -0.491286,-0.436612 -0.63695,-0.72794 -0.476321,-1.190805 0.127749,0.146127 -0.454962,-0.727943 -0.0532,-0.0798 -0.03502,-0.195085 -0.09099,-0.272975 -0.102783,-0.143042 -0.267669,-0.232958 -0.373645,-0.373648 -0.08944,-0.118726 -0.182764,-0.395597 -0.272979,-0.545954 -0.166425,-0.277373 -0.387455,-0.54156 -0.545957,-0.818933 -0.285284,-0.49925 0.07412,-0.07269 -0.181983,-0.454964 -0.08505,-0.126945 -0.206362,-0.229971 -0.27609,-0.365935 -0.02622,-0.05114 0.01847,-0.117991 0,-0.172416 -0.01834,-0.267205 -0.278109,-0.407982 -0.363969,-0.636947 -0.147095,-0.39225 -0.17405,-0.894054 -0.363971,-1.273897 -0.06782,-0.135645 -0.205155,-0.228328 -0.272979,-0.363972 -0.02713,-0.05426 0,-0.121323 0,-0.181985 -0.03033,-0.09099 -0.04797,-0.187251 -0.09099,-0.272978 -0.52265,-1.041576 -0.936252,-1.977562 -1.647481,-2.92744 -0.241462,-0.322484 -0.778198,-0.88277 -1.091912,-1.091912 -0.159613,-0.106408 -0.381463,-0.08329 -0.545954,-0.181985 -0.207092,-0.124254 -0.376344,-0.31185 -0.63695,-0.363971 -0.286491,-0.0573 -0.632762,0.0014 -0.909926,-0.09099 -0.103749,-0.03458 -0.17144,-0.141371 -0.272979,-0.181986 -0.05632,-0.02253 -0.124436,0.01918 -0.181986,0 -0.128682,-0.04289 -0.232375,-0.149087 -0.363968,-0.181985 -0.399984,-0.1 -1.08975,0.09254 -1.546876,-0.09099 -0.102431,-0.04112 -0.173133,-0.14245 -0.275521,-0.183682 -0.290717,-0.11707 -0.949077,-0.136251 -1.280764,-0.183634 -0.327064,-0.04672 -0.4045,-0.299283 -0.72794,-0.363971 -0.05948,-0.01189 -0.121322,0 -0.181986,0 -0.151653,-0.03033 -0.306226,-0.04861 -0.454961,-0.09099 -0.221345,-0.06307 -0.416399,-0.198939 -0.634701,-0.271854 -0.773801,-0.25846 -1.512067,-0.601145 -2.255211,-0.901235 -0.203393,-0.08213 -0.599122,0.03412 -0.803849,0 -0.0669,-0.01115 -0.116189,-0.07454 -0.181985,-0.09099 -0.221023,-0.05526 -0.490961,0.04566 -0.712814,0 -0.04201,-0.0086 -0.05263,-0.07181 -0.09099,-0.09099 -0.108514,-0.05426 -0.245002,0.02379 -0.363969,0 -0.06651,-0.0133 -0.116189,-0.07454 -0.181986,-0.09099 -0.256614,-0.06415 -0.564576,0.07267 -0.818933,0 -0.105153,-0.03004 -0.171442,-0.14137 -0.272978,-0.181985 -0.09481,-0.03792 -0.179158,0.01873 -0.271841,0 -0.500721,-0.101157 -0.694217,-0.08827 -1.163889,-0.336049 z"
       id="path2" /><circle
       style="fill:#2077b3;fill-opacity:1;stroke:#2077b3;stroke-width:0.713423;stroke-linecap:round;stroke-linejoin:round;stroke-dasharray:none;stroke-dashoffset:0;stroke-opacity:1"
       id="path13-2-4"
       cx="55.907269"
       cy="33.902565"
       r="2.1432884" /><path
       style="fill:none;fill-rule:evenodd;stroke:#000000;stroke-width:0.4;stroke-linecap:butt;stroke-linejoin:miter;stroke-dasharray:none;stroke-opacity:1;marker-start:url(#ArrowWide-5-3-78);marker-end:url(#ArrowWide-5-3-78)"
       d="m 48.475627,36.19472 5.383594,-1.660472"
       id="path17-3"
       inkscape:connector-type="polyline"
       inkscape:connector-curvature="0"
       inkscape:connection-end="#path13-2-4" /><text
       xml:space="preserve"
       style="font-size:4.58611px;fill:#000000;fill-opacity:1;stroke:#000000;stroke-width:0.187719;stroke-dasharray:none;stroke-opacity:1"
       x="85.678764"
       y="29.3641"
       id="text35-8-3-7-4-3-5-7-2"
       transform="scale(0.99748972,1.0025166)"
       inkscape:export-filename="../Feature extraction 2.png"
       inkscape:export-xdpi="96"
       inkscape:export-ydpi="96"><tspan
         sodipodi:role="line"
         style="font-size:4.58611px;fill:#000000;fill-opacity:1;stroke-width:0.187719"
         x="85.678764"
         y="29.3641"
         id="tspan12-0">New label weight</tspan></text><rect
       style="fill:#2077b3;fill-opacity:1;stroke:#2077b3;stroke-width:0.712972;stroke-linecap:round;stroke-linejoin:round;stroke-dasharray:none;stroke-dashoffset:0;stroke-opacity:1"
       id="rect3"
       width="52.140942"
       height="6.1650281"
       x="86.174797"
       y="32.361759" /><rect
       style="fill:#fe8113;fill-opacity:1;stroke:#fe8113;stroke-width:0.327002;stroke-linecap:round;stroke-linejoin:round;stroke-dasharray:none;stroke-dashoffset:0;stroke-opacity:1"
       id="rect3-2"
       width="10.321569"
       height="6.5512605"
       x="85.9823"
       y="40.634521" /><text
       xml:space="preserve"
       style="font-size:4.58591px;fill:#000000;fill-opacity:1;stroke:#000000;stroke-width:0.187711;stroke-dasharray:none;stroke-opacity:1"
       x="141.86711"
       y="36.620636"
       id="text35-8-3-7-4-3-5-7-2-9"
       transform="scale(0.99748972,1.0025166)"
       inkscape:export-filename="../Feature extraction 2.png"
       inkscape:export-xdpi="96"
       inkscape:export-ydpi="96"><tspan
         sodipodi:role="line"
         style="font-size:4.58591px;fill:#000000;fill-opacity:1;stroke-width:0.187711"
         x="141.86711"
         y="36.620636"
         id="tspan12-0-5">Crossing</tspan></text><text
       xml:space="preserve"
       style="font-size:4.58611px;fill:#000000;fill-opacity:1;stroke:#000000;stroke-width:0.187719;stroke-dasharray:none;stroke-opacity:1"
       x="99.362312"
       y="45.06554"
       id="text35-8-3-7-4-3-5-7-2-9-7"
       transform="scale(0.99748972,1.0025166)"
       inkscape:export-filename="../Feature extraction 2.png"
       inkscape:export-xdpi="96"
       inkscape:export-ydpi="96"><tspan
         sodipodi:role="line"
         style="font-size:4.58611px;fill:#000000;fill-opacity:1;stroke-width:0.187719"
         x="99.362312"
         y="45.06554"
         id="tspan3">Not Crossing</tspan></text></g></svg>
